<?xml version="1.0" encoding="utf-8"?>
<svg viewBox="71.926 55.34 386.056 386.056" xmlns="http://www.w3.org/2000/svg">
  <ellipse style="stroke: rgb(255, 255, 255); fill: rgb(255, 255, 255);" cx="264.954" cy="248.368" rx="193.028" ry="193.028"/>
  <path d="M 190.721 124.785 C 162.497 124.785 139.617 151.478 139.617 184.406 C 139.617 212.599 156.392 236.219 178.931 242.43 L 170.471 380.336 C 169.897 389.687 177.093 397.338 186.462 397.338 L 194.98 397.338 C 204.349 397.338 211.545 389.687 210.971 380.336 L 202.51 242.43 C 225.05 236.219 241.825 212.599 241.825 184.406 C 241.825 151.478 218.945 124.785 190.721 124.785 Z M 362.486 124.785 L 348.29 209.958 L 337.644 209.958 L 330.546 124.785 L 323.448 124.785 L 316.351 209.958 L 305.704 209.958 L 291.508 124.785 L 284.411 124.785 L 284.411 235.51 C 284.411 240.214 288.224 244.027 292.928 244.027 L 315.11 244.027 L 306.747 380.336 C 306.174 389.687 313.37 397.338 322.739 397.338 L 331.256 397.338 C 340.625 397.338 347.821 389.687 347.248 380.336 L 338.885 244.027 L 361.066 244.027 C 365.771 244.027 369.584 240.214 369.584 235.51 L 369.584 124.785 L 362.486 124.785 Z" style=""/>
</svg>